<?xml version="1.0" standalone="no"?>
<!DOCTYPE svg PUBLIC "-//W3C//DTD SVG 20010904//EN"
 "http://www.w3.org/TR/2001/REC-SVG-20010904/DTD/svg10.dtd">
<svg version="1.0" xmlns="http://www.w3.org/2000/svg"
 width="1280.000000pt" height="1280.000000pt" viewBox="0 0 1280.000000 1280.000000"
 preserveAspectRatio="xMidYMid meet">
<metadata>
Created by potrace 1.14, written by Peter Selinger 2001-2017
</metadata>
<g transform="translate(0.000000,1280.000000) scale(0.100000,-0.100000)"
fill="#000000" stroke="none">
<path d="M6247 11398 c-174 -175 -407 -514 -407 -594 0 -45 79 -176 207 -345
115 -150 118 -178 26 -226 -32 -17 -74 -33 -94 -37 -47 -8 -92 -31 -149 -74
-121 -91 -256 -245 -312 -357 -18 -35 -57 -143 -64 -177 -56 -269 -48 -501 24
-658 43 -94 150 -236 335 -443 15 -17 27 -33 27 -36 0 -3 -22 -20 -48 -37
-369 -246 -376 -250 -407 -243 -16 4 -93 26 -170 49 -77 23 -147 43 -155 45
-8 2 -114 33 -235 70 -121 36 -245 73 -275 81 -30 9 -66 20 -80 25 -129 44
-891 250 -1165 314 -170 40 -162 38 -270 59 -44 9 -90 18 -103 21 -13 2 -31 6
-40 9 -9 3 -37 8 -62 11 -25 3 -52 8 -60 10 -8 2 -37 6 -65 10 -27 3 -81 11
-120 16 -214 31 -402 42 -709 42 -281 -1 -378 -9 -574 -49 -53 -11 -215 -70
-317 -116 -527 -236 -843 -607 -945 -1108 -30 -148 -35 -203 -35 -400 0 -245
12 -358 60 -570 28 -124 86 -308 149 -474 57 -148 224 -497 327 -686 39 -70
169 -303 179 -320 104 -172 352 -598 415 -715 42 -76 213 -413 214 -421 0 -2
16 -39 36 -81 19 -41 35 -81 35 -87 0 -7 4 -16 9 -22 6 -7 61 -142 67 -164 1
-7 14 -40 24 -65 22 -52 101 -340 115 -420 4 -22 9 -49 11 -60 24 -138 37
-212 46 -270 6 -38 16 -74 23 -80 12 -10 9459 -14 9469 -5 6 6 13 64 21 164 4
43 8 86 10 95 1 9 6 54 10 101 3 47 8 92 10 100 3 8 7 34 10 56 23 189 130
560 216 751 11 23 19 44 19 47 0 15 139 311 233 496 94 184 129 249 255 475
52 94 107 193 122 220 15 28 53 97 85 155 329 601 533 1132 590 1535 4 28 10
59 13 70 2 11 6 112 7 225 4 276 -24 444 -112 665 -156 393 -458 711 -856 900
-229 109 -308 119 -902 120 -396 0 -594 -5 -715 -19 -19 -3 -62 -7 -95 -11
-65 -7 -115 -14 -155 -21 -14 -2 -43 -7 -65 -10 -22 -3 -46 -7 -54 -10 -8 -3
-30 -7 -50 -10 -44 -6 -490 -117 -552 -137 -24 -8 -75 -24 -114 -35 -140 -41
-435 -132 -640 -197 -439 -140 -754 -235 -855 -260 -8 -2 -51 -13 -95 -24
-120 -31 -169 -33 -245 -7 -90 32 -151 61 -252 123 -142 87 -151 114 -61 183
120 91 162 141 231 270 41 78 91 221 113 325 14 67 17 224 5 300 -32 218 -162
441 -336 577 -45 36 -155 103 -257 157 -98 52 -180 96 -183 98 -9 8 40 85 155
238 178 238 178 238 171 279 -8 41 -55 127 -128 236 -155 230 -342 430 -400
430 -10 0 -51 -33 -91 -72z m4688 -2922 c134 -7 229 -19 320 -41 84 -20 117
-29 189 -57 163 -63 286 -141 400 -254 172 -172 243 -319 302 -624 3 -19 7
-102 9 -183 4 -283 -42 -501 -173 -827 -280 -698 -936 -1810 -1399 -2373 -172
-209 -331 -337 -548 -442 -162 -78 -259 -105 -395 -109 -288 -9 -473 187 -497
525 -11 159 12 194 364 565 32 34 97 104 144 155 76 83 106 116 204 231 13 14
35 44 50 66 26 39 26 41 12 89 -28 91 -162 387 -304 668 -138 273 -180 345
-202 345 -25 0 -185 -144 -426 -385 -436 -437 -645 -670 -645 -720 0 -36 85
-254 214 -543 64 -145 116 -267 116 -273 0 -12 -128 -258 -178 -344 -48 -81
-131 -191 -182 -242 -52 -51 -164 -107 -266 -133 -286 -73 -513 27 -703 310
-137 205 -249 508 -276 746 -4 33 -10 78 -15 101 -8 45 -5 491 3 533 6 25 12
72 23 165 3 28 19 118 36 200 16 83 32 159 34 170 15 82 123 469 144 520 13
31 185 567 225 700 49 163 82 290 90 350 8 62 36 113 82 150 52 41 221 126
418 210 40 16 172 74 210 90 485 213 1302 492 1605 549 14 2 48 10 75 16 62
15 82 19 120 26 17 3 48 9 70 14 22 5 67 12 100 15 33 4 62 9 65 10 3 2 37 6
75 10 39 4 79 9 90 11 11 2 78 6 150 10 71 3 132 8 133 9 2 2 9 2 15 0 7 -2
62 -6 122 -9z m-8660 -99 c22 -3 67 -9 100 -12 541 -55 1282 -270 2189 -635
387 -156 501 -210 572 -272 46 -41 61 -79 68 -177 10 -137 75 -357 219 -731
90 -236 208 -583 232 -689 3 -9 15 -61 29 -116 33 -134 54 -240 61 -306 4 -30
8 -60 11 -68 18 -56 26 -515 11 -686 -8 -96 -12 -121 -28 -230 -16 -96 -15
-93 -40 -186 -65 -241 -164 -409 -334 -566 -142 -132 -262 -185 -420 -187
-157 -2 -243 26 -365 118 -143 107 -235 239 -354 507 l-47 106 57 139 c31 76
62 153 69 169 53 121 129 336 148 420 27 118 27 129 7 160 -55 83 -751 750
-982 941 -24 20 -54 45 -66 56 -42 35 -48 27 -163 -217 -80 -171 -97 -209
-179 -405 -40 -96 -78 -188 -85 -205 -7 -16 -26 -67 -41 -112 -29 -82 -29 -82
-11 -116 17 -32 116 -167 141 -193 6 -6 38 -42 71 -80 51 -58 181 -197 290
-309 134 -138 228 -261 258 -339 28 -72 27 -210 -2 -291 -55 -155 -220 -319
-368 -365 -63 -19 -186 -22 -258 -6 -125 29 -330 122 -443 203 -88 62 -315
289 -434 433 -148 179 -314 402 -433 580 -16 25 -32 47 -35 50 -7 7 -153 232
-217 335 -65 104 -199 331 -249 420 -21 38 -44 79 -51 90 -7 11 -15 27 -19 35
-4 8 -32 60 -62 114 -197 363 -359 727 -431 971 -25 85 -59 230 -66 276 -48
350 -1 592 160 835 210 314 550 499 998 540 39 3 73 8 75 9 5 5 376 -3 417 -8z"/>
<path d="M1703 2276 c-3 -5 -6 -220 -7 -478 l-1 -469 1605 5 c1404 5 5298 15
7217 20 359 1 654 4 657 7 2 2 7 90 10 194 8 244 15 470 21 615 l4 116 -4750
0 c-2966 0 -4753 -4 -4756 -10z"/>
</g>
</svg>
